<svg width="16" height="16" viewBox="0 0 16 16" fill="none" xmlns="http://www.w3.org/2000/svg">
<g clip-path="url(#clip0_33_810)">
<path d="M8.0159 15.632C12.2221 15.632 15.6319 12.2222 15.6319 8.016C15.6319 3.8098 12.2221 0.400002 8.0159 0.400002C3.8097 0.400002 0.399902 3.8098 0.399902 8.016C0.399902 12.2222 3.8097 15.632 8.0159 15.632Z" fill="#F9D026"/>
<path d="M8.01602 14.064C11.3562 14.064 14.064 11.3562 14.064 8.016C14.064 4.67578 11.3562 1.968 8.01602 1.968C4.6758 1.968 1.96802 4.67578 1.96802 8.016C1.96802 11.3562 4.6758 14.064 8.01602 14.064Z" fill="#F7AC28"/>
<path d="M9.07198 6.832L10.688 7.072C10.992 7.12 11.104 7.488 10.896 7.696L9.71198 8.832L9.98398 10.448C10.032 10.752 9.71198 10.976 9.43998 10.832L7.99998 10.08L6.54398 10.832C6.27198 10.976 5.95198 10.736 6.01598 10.432L6.30398 8.816L5.11998 7.68C4.89598 7.472 5.02398 7.088 5.32798 7.056L6.95998 6.832L7.69598 5.36C7.83998 5.088 8.22398 5.088 8.35198 5.36L9.07198 6.832Z" fill="#F9D026"/>
</g>
<defs>
<clipPath id="clip0_33_810">
<rect width="16" height="16" fill="white"/>
</clipPath>
</defs>
</svg>
