<svg width="14" height="14" viewBox="0 0 14 14" fill="none" xmlns="http://www.w3.org/2000/svg">
<g clip-path="url(#clip0_33_821)">
<path d="M6.4165 2.33333H2.33317C2.02375 2.33333 1.72701 2.45624 1.50821 2.67504C1.28942 2.89383 1.1665 3.19058 1.1665 3.49999V11.6667C1.1665 11.9761 1.28942 12.2728 1.50821 12.4916C1.72701 12.7104 2.02375 12.8333 2.33317 12.8333H10.4998C10.8093 12.8333 11.106 12.7104 11.3248 12.4916C11.5436 12.2728 11.6665 11.9761 11.6665 11.6667V7.58333" stroke="#878787" stroke-linecap="round" stroke-linejoin="round"/>
<path d="M10.7915 1.45834C11.0236 1.22627 11.3383 1.0959 11.6665 1.0959C11.9947 1.0959 12.3094 1.22627 12.5415 1.45834C12.7736 1.6904 12.9039 2.00515 12.9039 2.33334C12.9039 2.66153 12.7736 2.97627 12.5415 3.20834L6.99984 8.75001L4.6665 9.33334L5.24984 7.00001L10.7915 1.45834Z" stroke="#878787" stroke-linecap="round" stroke-linejoin="round"/>
</g>
<defs>
<clipPath id="clip0_33_821">
<rect width="14" height="14" fill="white"/>
</clipPath>
</defs>
</svg>
