<svg width="12" height="16" viewBox="0 0 12 16" fill="none" xmlns="http://www.w3.org/2000/svg">
<path d="M6 0C2.68286 0 0 2.504 0 5.6C0 6.992 0.428571 8.296 1.20857 9.472C2.02286 10.704 3.09429 11.76 3.91714 12.992C4.32 13.592 4.61143 14.152 4.92 14.8C5.14286 15.24 5.32286 16 6 16C6.67714 16 6.85714 15.24 7.07143 14.8C7.38857 14.152 7.67143 13.592 8.07429 12.992C8.89714 11.768 9.96857 10.712 10.7829 9.472C11.5714 8.296 12 6.992 12 5.6C12 2.504 9.31714 0 6 0ZM6 7.8C4.81714 7.8 3.85714 6.904 3.85714 5.8C3.85714 4.696 4.81714 3.8 6 3.8C7.18286 3.8 8.14286 4.696 8.14286 5.8C8.14286 6.904 7.18286 7.8 6 7.8Z" fill="#7C52BF"/>
</svg>
