<svg width="11" height="11" viewBox="0 0 11 11" fill="none" xmlns="http://www.w3.org/2000/svg">
<path d="M6.34055 0.639193L7.03141 2.85986C7.14656 3.24398 7.49199 3.49606 7.87196 3.49606H10.1173C10.9693 3.49606 11.3263 4.6364 10.6354 5.16456L8.81614 6.53297C8.50525 6.77304 8.3786 7.18117 8.49374 7.56528L9.1846 9.78595C9.44943 10.6382 8.51677 11.3344 7.8259 10.8183L6.01815 9.43785C5.70726 9.19778 5.29274 9.19778 4.98185 9.43785L3.16258 10.8183C2.47172 11.3464 1.53905 10.6382 1.80388 9.78595L2.49475 7.56528C2.60989 7.18117 2.48323 6.77304 2.17234 6.53297L0.364588 5.16456C-0.326275 4.6364 0.0306707 3.49606 0.882735 3.49606H3.12804C3.50801 3.49606 3.85344 3.24398 3.96859 2.85986L4.65945 0.639193C4.92428 -0.213064 6.07572 -0.213064 6.34055 0.639193Z" fill="#FFC700"/>
</svg>
